<svg width="0" height="0" class="hidden">
  <symbol  xmlns="http://www.w3.org/2000/svg" viewBox="0 0 28 28" id="pinterest">
    <path d="M14 .667C6.657.694.714 6.653.714 14c0 5.599 3.452 10.393 8.343 12.368l.089.032c-.133-1.053-.227-2.667.04-3.827l1.56-6.627s-.4-.8-.4-1.973c0-1.853 1.08-3.227 2.427-3.227 1.133 0 1.693.853 1.693 1.867 0 1.147-.733 2.853-1.12 4.44-.32 1.333.667 2.413 1.987 2.413 2.373 0 4.187-2.493 4.187-6.093 0-3.2-2.293-5.413-5.573-5.413a5.773 5.773 0 0 0-6.026 5.767v.006c0 1.147.44 2.373.987 3.04.107.133.12.253.08.387l-.373 1.507c-.053.24-.2.307-.44.187-1.68-.787-2.72-3.2-2.72-5.173 0-4.2 3.067-8.053 8.827-8.053 4.613 0 8.227 3.28 8.227 7.693 0 4.6-2.907 8.293-6.933 8.293-1.333 0-2.613-.707-3.04-1.533l-.84 3.16a14.615 14.615 0 0 1-1.688 3.563l.034-.056c1.17.372 2.516.587 3.911.587 7.364 0 13.333-5.97 13.333-13.333 0-7.347-5.942-13.306-13.282-13.333h-.003L14 .667Z"></path>
  </symbol>
  <symbol  xmlns="http://www.w3.org/2000/svg" viewBox="0 0 17 28" id="facebook">
    <path d="M5.04 27.333 5 15.666H0v-5h5V7.333C5 2.84 7.787.666 11.8.666c1.92 0 3.573.133 4.053.2v4.707h-2.787c-2.173 0-2.6 1.04-2.6 2.56v2.533h6.2l-1.667 5h-4.533v11.667H5.039h.001Z" ></path>
  </symbol>
  <symbol  xmlns="http://www.w3.org/2000/svg" viewBox="0 0 28 22" id="twitter">
    <path d="M27.333 2.83998C26.333 3.33298 25.333 3.50698 24.16 3.66698C25.333 2.99998 26.16 1.99998 26.493 0.666984C25.488 1.27498 24.317 1.73798 23.07 1.98898L23 2.00098C21.969 0.986984 20.56 0.354984 19.004 0.333984H19C16.16 0.333984 13.667 2.84098 13.667 5.84098C13.667 6.33398 13.667 6.66798 13.84 7.00098C9.26197 6.82298 5.22097 4.66398 2.52897 1.36198L2.50697 1.33398C2.08197 2.05998 1.83097 2.93198 1.83097 3.86298C1.83097 3.97198 1.83397 4.08098 1.84097 4.18898L1.83997 4.17398C1.87397 6.05198 2.84897 7.69498 4.31297 8.65498L4.33397 8.66798C3.49397 8.66798 2.66697 8.33498 1.82697 8.00098C1.82697 10.668 3.66697 12.841 6.15997 13.334C5.66697 13.507 5.15997 13.507 4.66697 13.507C4.33397 13.507 3.99997 13.507 3.66697 13.334C4.33397 15.507 6.33397 17.174 8.83997 17.174C7.03997 18.629 4.72397 19.509 2.20297 19.509C2.13197 19.509 2.06097 19.508 1.98997 19.507H2.00097H0.667969C3.03297 21.016 5.90397 21.936 8.98397 22H9.00097C19.001 22 24.508 13.667 24.508 6.49298V5.82598C25.655 5.03598 26.601 4.03898 27.311 2.88198L27.335 2.83998H27.333Z"></path>
  </symbol>
  <symbol  xmlns="http://www.w3.org/2000/svg" viewBox="0 0 28 28" id="instagram">
    <path d="M15.36 0.666992C17.76 0.666992 18.267 0.693992 19.493 0.746992C20.906 0.813992 21.88 1.03999 22.72 1.37399C23.6 1.70699 24.347 2.17399 25.08 2.90699C25.827 3.63999 26.28 4.38699 26.627 5.26699C26.96 6.10699 27.174 7.07999 27.24 8.50699C27.307 9.77399 27.32 10.267 27.32 12.934V15.067C27.32 17.734 27.307 18.227 27.24 19.494C27.217 20.659 26.994 21.764 26.604 22.788L26.626 22.721C26.279 23.601 25.826 24.348 25.093 25.081C24.346 25.828 23.6 26.281 22.72 26.628C21.88 26.961 20.907 27.175 19.493 27.241C18.226 27.308 17.72 27.321 15.053 27.321H12.933C10.266 27.321 9.77296 27.308 8.49296 27.241C7.32796 27.218 6.22296 26.995 5.19896 26.605L5.26596 26.627C4.34296 26.274 3.55596 25.753 2.90696 25.094L2.90596 25.093C2.23996 24.441 1.71396 23.649 1.37396 22.764L1.35896 22.719C0.991964 21.763 0.768964 20.657 0.745964 19.502V19.492C0.692964 18.45 0.662964 17.229 0.662964 16.002C0.662964 15.776 0.663964 15.55 0.665964 15.325V15.359V12.626C0.665964 10.226 0.692964 9.71899 0.745964 8.49299C0.812964 7.07999 1.03896 6.10599 1.35896 5.26599C1.70596 4.38599 2.15896 3.63899 2.90596 2.90599C3.55096 2.23899 4.33996 1.71599 5.22296 1.38699L5.26596 1.37299C6.22096 1.00199 7.32596 0.773992 8.48096 0.746992H8.49296C9.71996 0.693992 10.226 0.666992 12.626 0.666992H15.36ZM15.387 3.06699H12.6C10.293 3.06699 9.79996 3.09399 8.59996 3.14699C7.30696 3.19999 6.59996 3.41399 6.13296 3.59999C5.50596 3.83999 5.06596 4.13299 4.59996 4.59999C4.13396 5.06699 3.83996 5.50699 3.59996 6.13299C3.42696 6.59999 3.19996 7.30599 3.14696 8.61299C3.09396 9.81299 3.06696 10.293 3.06696 12.613V15.386C3.06696 17.706 3.09396 18.186 3.14696 19.386C3.19996 20.679 3.41396 21.386 3.59996 21.853C3.83996 22.48 4.13296 22.92 4.59996 23.386C5.06696 23.852 5.50696 24.146 6.13296 24.386C6.59996 24.573 7.30596 24.786 8.61296 24.839C9.90596 24.906 10.373 24.919 13.253 24.919H14.733C17.626 24.919 18.08 24.906 19.386 24.839C20.679 24.786 21.386 24.572 21.853 24.386C22.48 24.146 22.92 23.853 23.386 23.386C23.852 22.919 24.146 22.479 24.386 21.853C24.573 21.386 24.786 20.68 24.839 19.386C24.906 18.079 24.919 17.626 24.919 14.733V13.266C24.919 10.373 24.906 9.90599 24.839 8.59899C24.786 7.30599 24.572 6.59899 24.386 6.13199C24.16 5.53099 23.819 5.01799 23.387 4.59999L23.386 4.59899C22.966 4.16599 22.454 3.82499 21.881 3.60799L21.853 3.59899C21.121 3.32299 20.275 3.15799 19.391 3.14599H19.386C18.358 3.09399 17.155 3.06399 15.944 3.06399C15.748 3.06399 15.552 3.06499 15.356 3.06599H15.386L15.387 3.06699ZM14 7.14699C17.781 7.14699 20.847 10.212 20.847 13.994C20.847 17.776 17.782 20.841 14 20.841C10.219 20.841 7.15296 17.776 7.15296 13.994C7.15296 10.212 10.218 7.14699 14 7.14699ZM14 9.54699C11.544 9.54699 9.55296 11.538 9.55296 13.994C9.55296 16.45 11.544 18.441 14 18.441C16.456 18.441 18.447 16.45 18.447 13.994C18.447 11.538 16.456 9.54699 14 9.54699ZM21.107 5.27999C21.991 5.27999 22.707 5.99599 22.707 6.87999C22.707 7.76399 21.991 8.47999 21.107 8.47999C20.223 8.47999 19.507 7.76399 19.507 6.87999C19.507 5.99599 20.223 5.27999 21.107 5.27999Z"></path>
  </symbol>
</svg>